<?xml version="1.0" standalone="no"?>
<!DOCTYPE svg PUBLIC "-//W3C//DTD SVG 20010904//EN"
 "http://www.w3.org/TR/2001/REC-SVG-20010904/DTD/svg10.dtd">
<svg version="1.0" xmlns="http://www.w3.org/2000/svg"
 width="2000.000000pt" height="2000.000000pt" viewBox="0 0 2000.000000 2000.000000"
 preserveAspectRatio="xMidYMid meet">
<metadata>
Created by potrace 1.11, written by Peter Selinger 2001-2013
</metadata>
<g transform="translate(0.000000,2000.000000) scale(0.100000,-0.100000)"
fill="#000000" stroke="none">
<path d="M2170 15130 l0 -470 1800 0 1800 0 0 -430 0 -430 -450 0 -450 0 0
-450 0 -450 -450 0 -450 0 0 -450 0 -450 -450 0 -450 0 0 -1370 0 -1370 475 0
475 0 0 1350 0 1350 450 0 450 0 0 450 0 450 450 0 450 0 0 450 0 450 450 0
450 0 0 920 0 920 -2275 0 -2275 0 0 -470z"/>
<path d="M7570 14680 l0 -920 450 0 450 0 0 -430 0 -430 -450 0 -450 0 0 -920
0 -920 475 0 475 0 0 900 0 900 1325 0 1325 0 0 -900 0 -900 475 0 475 0 0
920 0 920 -447 2 -448 3 -3 428 -2 427 450 0 450 0 0 920 0 920 -475 0 -475 0
0 -900 0 -900 -1322 2 -1323 3 -3 898 -2 897 -475 0 -475 0 0 -920z"/>
<path d="M12970 15130 l0 -470 1800 0 1800 0 0 -430 0 -430 -450 0 -450 0 0
-450 0 -450 -450 0 -450 0 0 -450 0 -450 -450 0 -450 0 0 -1370 0 -1370 475 0
475 0 0 1350 0 1350 450 0 450 0 0 450 0 450 450 0 450 0 0 450 0 450 450 0
450 0 0 920 0 920 -2275 0 -2275 0 0 -470z"/>
<path d="M6740 6550 l0 -260 265 0 265 0 0 260 0 260 -265 0 -265 0 0 -260z"/>
<path d="M13740 6550 l0 -260 265 0 265 0 0 260 0 260 -265 0 -265 0 0 -260z"/>
<path d="M2740 4550 l0 -1260 265 0 265 0 0 750 0 750 250 0 250 0 0 250 0
250 485 0 485 0 0 -1000 0 -1000 265 0 265 0 0 1010 0 1010 -247 2 -248 3 -3
248 -2 247 -515 0 -515 0 0 -250 0 -250 -232 2 -233 3 -3 248 -2 247 -265 0
-265 0 0 -1260z"/>
<path d="M5740 5550 l0 -260 500 0 500 0 0 -740 0 -740 -500 0 -500 0 0 -260
0 -260 1265 0 1265 0 0 260 0 260 -497 2 -498 3 -3 998 -2 997 -765 0 -765 0
0 -260z"/>
<path d="M8740 4550 l0 -1260 265 0 265 0 0 750 0 750 250 0 250 0 0 250 0
250 485 0 485 0 0 -1000 0 -1000 265 0 265 0 0 1010 0 1010 -247 2 -248 3 -3
248 -2 247 -515 0 -515 0 0 -250 0 -250 -232 2 -233 3 -3 248 -2 247 -265 0
-265 0 0 -1260z"/>
<path d="M12240 5550 l0 -260 750 0 750 0 0 -1240 0 -1240 -732 2 -733 3 -3
248 -2 247 -265 0 -265 0 0 -260 0 -260 250 0 250 0 0 -250 0 -250 765 0 765
0 0 250 0 250 250 0 250 0 0 1510 0 1510 -1015 0 -1015 0 0 -260z"/>
<path d="M15240 5550 l0 -260 750 0 750 0 0 -240 0 -240 -750 0 -750 0 0 -250
0 -250 -250 0 -250 0 0 -260 0 -260 250 0 250 0 0 -250 0 -250 1015 0 1015 0
0 1010 0 1010 -247 2 -248 3 -3 248 -2 247 -765 0 -765 0 0 -260z m1500 -1500
l0 -240 -732 2 -733 3 -3 238 -2 237 735 0 735 0 0 -240z"/>
</g>
</svg>
